<?xml version="1.0" encoding="UTF-8" standalone="no"?>
<!DOCTYPE svg PUBLIC "-//W3C//DTD SVG 1.1//EN"
 "http://www.w3.org/Graphics/SVG/1.1/DTD/svg11.dtd">
<!-- Generated by graphviz version 2.43.0 (0)
 -->
<!-- Title: OET_Writing_Strategy Pages: 1 -->
<svg width="468pt" height="530pt"
 viewBox="0.00 0.00 468.00 530.00" xmlns="http://www.w3.org/2000/svg" xmlns:xlink="http://www.w3.org/1999/xlink">
<g id="graph0" class="graph" transform="scale(1 1) rotate(0) translate(36 494)">
<title>OET_Writing_Strategy</title>
<text text-anchor="middle" x="198" y="-443.6" font-family="Helvetica,sans-Serif" font-size="13.00">OET Medical Writing — Step&#45;wise Strategy</text>
<!-- S1 -->
<g id="node1" class="node">
<title>S1</title>
<path fill="#085041" stroke="#5dcaa5" stroke-width="0.8" d="M384,-436C384,-436 12,-436 12,-436 6,-436 0,-430 0,-424 0,-424 0,-396 0,-396 0,-390 6,-384 12,-384 12,-384 384,-384 384,-384 390,-384 396,-390 396,-396 396,-396 396,-424 396,-424 396,-430 390,-436 384,-436"/>
<text text-anchor="middle" x="198" y="-413.4" font-family="Helvetica,sans-Serif" font-size="12.00" fill="#9fe1cb">[1] &#160;Establish purpose</text>
<text text-anchor="middle" x="198" y="-400.4" font-family="Helvetica,sans-Serif" font-size="12.00" fill="#9fe1cb">Opening brief + expanded closing reason</text>
</g>
<!-- S2 -->
<g id="node2" class="node">
<title>S2</title>
<path fill="#3c3489" stroke="#afa9ec" stroke-width="0.8" d="M384,-366C384,-366 12,-366 12,-366 6,-366 0,-360 0,-354 0,-354 0,-313 0,-313 0,-307 6,-301 12,-301 12,-301 384,-301 384,-301 390,-301 396,-307 396,-313 396,-313 396,-354 396,-354 396,-360 390,-366 384,-366"/>
<text text-anchor="middle" x="198" y="-343.4" font-family="Helvetica,sans-Serif" font-size="12.00" fill="#cecbf6">[2] &#160;Select relevant content</text>
<text text-anchor="middle" x="198" y="-330.4" font-family="Helvetica,sans-Serif" font-size="12.00" fill="#cecbf6">Inclusion / exclusion based on context</text>
<text text-anchor="middle" x="198" y="-317.4" font-family="Helvetica,sans-Serif" font-size="12.00" fill="#cecbf6">Writer–reader and patient–reader relationships</text>
</g>
<!-- S1&#45;&gt;S2 -->
<g id="edge1" class="edge">
<title>S1&#45;&gt;S2</title>
<path fill="none" stroke="#9c9a92" stroke-width="0.8" d="M198,-383.78C198,-380.42 198,-376.91 198,-373.39"/>
<polygon fill="#9c9a92" stroke="#9c9a92" stroke-width="0.8" points="198,-366.17 201.15,-373.17 198,-369.67 198,-373.17 198,-373.17 198,-373.17 198,-369.67 194.85,-373.17 198,-366.17 198,-366.17"/>
</g>
<!-- S3 -->
<g id="node3" class="node">
<title>S3</title>
<path fill="#0c447c" stroke="#85b7eb" stroke-width="0.8" d="M384,-283C384,-283 12,-283 12,-283 6,-283 0,-277 0,-271 0,-271 0,-217 0,-217 0,-211 6,-205 12,-205 12,-205 384,-205 384,-205 390,-205 396,-211 396,-217 396,-217 396,-271 396,-271 396,-277 390,-283 384,-283"/>
<text text-anchor="middle" x="198" y="-260.4" font-family="Helvetica,sans-Serif" font-size="12.00" fill="#b5d4f4">[3] &#160;Group and order information</text>
<text text-anchor="middle" x="198" y="-247.4" font-family="Helvetica,sans-Serif" font-size="12.00" fill="#b5d4f4">Chronological — same situation, temporal sequence</text>
<text text-anchor="middle" x="198" y="-234.4" font-family="Helvetica,sans-Serif" font-size="12.00" fill="#b5d4f4">Thematical — cross&#45;situations, by reader importance</text>
<text text-anchor="middle" x="198" y="-221.4" font-family="Helvetica,sans-Serif" font-size="12.00" fill="#b5d4f4">Mixed blend where relevant; note spatial relations</text>
</g>
<!-- S2&#45;&gt;S3 -->
<g id="edge2" class="edge">
<title>S2&#45;&gt;S3</title>
<path fill="none" stroke="#9c9a92" stroke-width="0.8" d="M198,-300.91C198,-297.39 198,-293.76 198,-290.11"/>
<polygon fill="#9c9a92" stroke="#9c9a92" stroke-width="0.8" points="198,-283.11 201.15,-290.11 198,-286.61 198,-290.11 198,-290.11 198,-290.11 198,-286.61 194.85,-290.11 198,-283.11 198,-283.11"/>
</g>
<!-- S4 -->
<g id="node4" class="node">
<title>S4</title>
<path fill="#712b13" stroke="#f0997b" stroke-width="0.8" d="M384,-187C384,-187 12,-187 12,-187 6,-187 0,-181 0,-175 0,-175 0,-121 0,-121 0,-115 6,-109 12,-109 12,-109 384,-109 384,-109 390,-109 396,-115 396,-121 396,-121 396,-175 396,-175 396,-181 390,-187 384,-187"/>
<text text-anchor="middle" x="198" y="-164.4" font-family="Helvetica,sans-Serif" font-size="12.00" fill="#f5c4b3">[4] &#160;Apply formal briefs and tense</text>
<text text-anchor="middle" x="198" y="-151.4" font-family="Helvetica,sans-Serif" font-size="12.00" fill="#f5c4b3">Opening brief — purpose + patient + referral intent</text>
<text text-anchor="middle" x="198" y="-138.4" font-family="Helvetica,sans-Serif" font-size="12.00" fill="#f5c4b3">Debrief — closing gratitude or invitation to contact</text>
<text text-anchor="middle" x="198" y="-125.4" font-family="Helvetica,sans-Serif" font-size="12.00" fill="#f5c4b3">Tense follows temporal relationship of each fact</text>
</g>
<!-- S3&#45;&gt;S4 -->
<g id="edge3" class="edge">
<title>S3&#45;&gt;S4</title>
<path fill="none" stroke="#9c9a92" stroke-width="0.8" d="M198,-204.77C198,-201.33 198,-197.82 198,-194.33"/>
<polygon fill="#9c9a92" stroke="#9c9a92" stroke-width="0.8" points="198,-187.2 201.15,-194.2 198,-190.7 198,-194.2 198,-194.2 198,-194.2 198,-190.7 194.85,-194.2 198,-187.2 198,-187.2"/>
</g>
<!-- S5 -->
<g id="node5" class="node">
<title>S5</title>
<path fill="#633806" stroke="#ef9f27" stroke-width="0.8" d="M384,-91C384,-91 12,-91 12,-91 6,-91 0,-85 0,-79 0,-79 0,-12 0,-12 0,-6 6,0 12,0 12,0 384,0 384,0 390,0 396,-6 396,-12 396,-12 396,-79 396,-79 396,-85 390,-91 384,-91"/>
<text text-anchor="middle" x="198" y="-68.4" font-family="Helvetica,sans-Serif" font-size="12.00" fill="#fac775">[5] &#160;Maintain formal register</text>
<text text-anchor="middle" x="198" y="-55.4" font-family="Helvetica,sans-Serif" font-size="12.00" fill="#fac775">No contractions</text>
<text text-anchor="middle" x="198" y="-42.4" font-family="Helvetica,sans-Serif" font-size="12.00" fill="#fac775">No excessive abbreviations</text>
<text text-anchor="middle" x="198" y="-29.4" font-family="Helvetica,sans-Serif" font-size="12.00" fill="#fac775">No informal / academic connectors</text>
<text text-anchor="middle" x="198" y="-16.4" font-family="Helvetica,sans-Serif" font-size="12.00" fill="#fac775">Factual, non&#45;judgemental; concise sentences</text>
</g>
<!-- S4&#45;&gt;S5 -->
<g id="edge4" class="edge">
<title>S4&#45;&gt;S5</title>
<path fill="none" stroke="#9c9a92" stroke-width="0.8" d="M198,-108.72C198,-105.29 198,-101.79 198,-98.28"/>
<polygon fill="#9c9a92" stroke="#9c9a92" stroke-width="0.8" points="198,-91.07 201.15,-98.07 198,-94.57 198,-98.07 198,-98.07 198,-98.07 198,-94.57 194.85,-98.07 198,-91.07 198,-91.07"/>
</g>
</g>
</svg>
