<?xml version="1.0" encoding="UTF-8" standalone="no"?>
<!DOCTYPE svg PUBLIC "-//W3C//DTD SVG 1.1//EN"
 "http://www.w3.org/Graphics/SVG/1.1/DTD/svg11.dtd">
<!-- Generated by graphviz version 2.43.0 (0)
 -->
<!-- Title: medical_listening Pages: 1 -->
<svg width="1714pt" height="464pt"
 viewBox="0.00 0.00 1714.00 464.00" xmlns="http://www.w3.org/2000/svg" xmlns:xlink="http://www.w3.org/1999/xlink">
<g id="graph0" class="graph" transform="scale(1 1) rotate(0) translate(4 460)">
<title>medical_listening</title>
<polygon fill="white" stroke="transparent" points="-4,4 -4,-460 1710,-460 1710,4 -4,4"/>
<text text-anchor="middle" x="853" y="-443.2" font-family="Helvetica,sans-Serif" font-size="11.00">Medical Listening — Structural Diagram</text>
<g id="clust1" class="cluster">
<title>cluster_criteria</title>
<path fill="#e1f5ee" stroke="#0f6e56" d="M20,-8C20,-8 897,-8 897,-8 903,-8 909,-14 909,-20 909,-20 909,-297 909,-297 909,-303 903,-309 897,-309 897,-309 20,-309 20,-309 14,-309 8,-303 8,-297 8,-297 8,-20 8,-20 8,-14 14,-8 20,-8"/>
<text text-anchor="middle" x="458.5" y="-296.2" font-family="Helvetica,sans-Serif" font-weight="bold" font-size="11.00" fill="#04342c">Listening Criteria</text>
</g>
<g id="clust2" class="cluster">
<title>cluster_context</title>
<path fill="#e6f1fb" stroke="#185fa5" stroke-width="0.6" d="M38,-109C38,-109 314,-109 314,-109 320,-109 326,-115 326,-121 326,-121 326,-259 326,-259 326,-265 320,-271 314,-271 314,-271 38,-271 38,-271 32,-271 26,-265 26,-259 26,-259 26,-121 26,-121 26,-115 32,-109 38,-109"/>
<text text-anchor="middle" x="176" y="-259" font-family="Helvetica,sans-Serif" font-weight="bold" font-size="10.00" fill="#042c53">Context components</text>
</g>
<g id="clust3" class="cluster">
<title>cluster_affirm</title>
<path fill="#f8f8f5" stroke="#b4b2a9" stroke-width="0.5" d="M356,-194C356,-194 727,-194 727,-194 733,-194 739,-200 739,-206 739,-206 739,-257 739,-257 739,-263 733,-269 727,-269 727,-269 356,-269 356,-269 350,-269 344,-263 344,-257 344,-257 344,-206 344,-206 344,-200 350,-194 356,-194"/>
<text text-anchor="middle" x="541.5" y="-257" font-family="Helvetica,sans-Serif" font-weight="bold" font-size="10.00" fill="#04342c">Affirm types</text>
</g>
<g id="clust4" class="cluster">
<title>cluster_obj</title>
<path fill="#e6f1fb" stroke="#185fa5" stroke-width="0.6" d="M769,-26C769,-26 879,-26 879,-26 885,-26 891,-32 891,-38 891,-38 891,-259 891,-259 891,-265 885,-271 879,-271 879,-271 769,-271 769,-271 763,-271 757,-265 757,-259 757,-259 757,-38 757,-38 757,-32 763,-26 769,-26"/>
<text text-anchor="middle" x="824" y="-259" font-family="Helvetica,sans-Serif" font-weight="bold" font-size="10.00" fill="#042c53">Object detail steps</text>
</g>
<!-- root -->
<g id="node1" class="node">
<title>root</title>
<path fill="#eeedfe" stroke="#534ab7" stroke-width="1.2" d="M886,-436C886,-436 768,-436 768,-436 762,-436 756,-430 756,-424 756,-424 756,-412 756,-412 756,-406 762,-400 768,-400 768,-400 886,-400 886,-400 892,-400 898,-406 898,-412 898,-412 898,-424 898,-424 898,-430 892,-436 886,-436"/>
<text text-anchor="middle" x="827" y="-414.6" font-family="Helvetica,sans-Serif" font-size="13.00" fill="#26215c">Medical Listening</text>
</g>
<!-- c1 -->
<g id="node2" class="node">
<title>c1</title>
<path fill="#eeedfe" stroke="#534ab7" stroke-width="0.6" d="M203.5,-353C203.5,-353 44.5,-353 44.5,-353 38.5,-353 32.5,-347 32.5,-341 32.5,-341 32.5,-329 32.5,-329 32.5,-323 38.5,-317 44.5,-317 44.5,-317 203.5,-317 203.5,-317 209.5,-317 215.5,-323 215.5,-329 215.5,-329 215.5,-341 215.5,-341 215.5,-347 209.5,-353 203.5,-353"/>
<text text-anchor="middle" x="124" y="-338" font-family="Helvetica,sans-Serif" font-size="10.00" fill="#26215c">1. Context Identification</text>
<text text-anchor="middle" x="124" y="-327" font-family="Helvetica,sans-Serif" font-size="10.00" fill="#26215c">Gist · Context switch · Headings</text>
</g>
<!-- root&#45;&gt;c1 -->
<g id="edge5" class="edge">
<title>root&#45;&gt;c1</title>
<path fill="none" stroke="#888780" stroke-width="0.7" d="M755.72,-427C577,-427 124,-427 124,-427 124,-427 124,-359.18 124,-359.18"/>
<polygon fill="#888780" stroke="#888780" stroke-width="0.7" points="126.1,-359.18 124,-353.18 121.9,-359.18 126.1,-359.18"/>
</g>
<!-- c2 -->
<g id="node6" class="node">
<title>c2</title>
<path fill="#f1efe8" stroke="#5f5e5a" stroke-width="0.6" d="M382,-353C382,-353 268,-353 268,-353 262,-353 256,-347 256,-341 256,-341 256,-329 256,-329 256,-323 262,-317 268,-317 268,-317 382,-317 382,-317 388,-317 394,-323 394,-329 394,-329 394,-341 394,-341 394,-347 388,-353 382,-353"/>
<text text-anchor="middle" x="325" y="-338" font-family="Helvetica,sans-Serif" font-size="10.00" fill="#2c2c2a">2. People &amp; Voices</text>
<text text-anchor="middle" x="325" y="-327" font-family="Helvetica,sans-Serif" font-size="10.00" fill="#2c2c2a">Names · Tone listening</text>
</g>
<!-- root&#45;&gt;c2 -->
<g id="edge6" class="edge">
<title>root&#45;&gt;c2</title>
<path fill="none" stroke="#888780" stroke-width="0.7" d="M755.87,-418C617.39,-418 325,-418 325,-418 325,-418 325,-359.01 325,-359.01"/>
<polygon fill="#888780" stroke="#888780" stroke-width="0.7" points="327.1,-359.01 325,-353.01 322.9,-359.01 327.1,-359.01"/>
</g>
<!-- c3 -->
<g id="node7" class="node">
<title>c3</title>
<path fill="#eeedfe" stroke="#534ab7" stroke-width="0.6" d="M620,-353C620,-353 446,-353 446,-353 440,-353 434,-347 434,-341 434,-341 434,-329 434,-329 434,-323 440,-317 446,-317 446,-317 620,-317 620,-317 626,-317 632,-323 632,-329 632,-329 632,-341 632,-341 632,-347 626,-353 620,-353"/>
<text text-anchor="middle" x="533" y="-338" font-family="Helvetica,sans-Serif" font-size="10.00" fill="#26215c">3. Affirmative Listening</text>
<text text-anchor="middle" x="533" y="-327" font-family="Helvetica,sans-Serif" font-size="10.00" fill="#26215c">End of debate · Opinion · Argument</text>
</g>
<!-- root&#45;&gt;c3 -->
<g id="edge7" class="edge">
<title>root&#45;&gt;c3</title>
<path fill="none" stroke="#888780" stroke-width="0.7" d="M755.83,-409C668.82,-409 533,-409 533,-409 533,-409 533,-359.29 533,-359.29"/>
<polygon fill="#888780" stroke="#888780" stroke-width="0.7" points="535.1,-359.29 533,-353.29 530.9,-359.29 535.1,-359.29"/>
</g>
<!-- c4 -->
<g id="node11" class="node">
<title>c4</title>
<path fill="#f1efe8" stroke="#5f5e5a" stroke-width="0.6" d="M786,-353C786,-353 684,-353 684,-353 678,-353 672,-347 672,-341 672,-341 672,-329 672,-329 672,-323 678,-317 684,-317 684,-317 786,-317 786,-317 792,-317 798,-323 798,-329 798,-329 798,-341 798,-341 798,-347 792,-353 786,-353"/>
<text text-anchor="middle" x="735" y="-338" font-family="Helvetica,sans-Serif" font-size="10.00" fill="#2c2c2a">4. Personal Opinions</text>
<text text-anchor="middle" x="735" y="-327" font-family="Helvetica,sans-Serif" font-size="10.00" fill="#2c2c2a">Attribute to speaker</text>
</g>
<!-- root&#45;&gt;c4 -->
<g id="edge8" class="edge">
<title>root&#45;&gt;c4</title>
<path fill="none" stroke="#888780" stroke-width="0.7" d="M777,-399.99C777,-399.99 777,-359.26 777,-359.26"/>
<polygon fill="#888780" stroke="#888780" stroke-width="0.7" points="779.1,-359.26 777,-353.26 774.9,-359.26 779.1,-359.26"/>
</g>
<!-- c5 -->
<g id="node12" class="node">
<title>c5</title>
<path fill="#eeedfe" stroke="#534ab7" stroke-width="0.6" d="M989.5,-353C989.5,-353 850.5,-353 850.5,-353 844.5,-353 838.5,-347 838.5,-341 838.5,-341 838.5,-329 838.5,-329 838.5,-323 844.5,-317 850.5,-317 850.5,-317 989.5,-317 989.5,-317 995.5,-317 1001.5,-323 1001.5,-329 1001.5,-329 1001.5,-341 1001.5,-341 1001.5,-347 995.5,-353 989.5,-353"/>
<text text-anchor="middle" x="920" y="-338" font-family="Helvetica,sans-Serif" font-size="10.00" fill="#26215c">5. Object Details</text>
<text text-anchor="middle" x="920" y="-327" font-family="Helvetica,sans-Serif" font-size="10.00" fill="#26215c">Trace object through extract</text>
</g>
<!-- root&#45;&gt;c5 -->
<g id="edge9" class="edge">
<title>root&#45;&gt;c5</title>
<path fill="none" stroke="#888780" stroke-width="0.7" d="M868.25,-399.99C868.25,-399.99 868.25,-359.26 868.25,-359.26"/>
<polygon fill="#888780" stroke="#888780" stroke-width="0.7" points="870.35,-359.26 868.25,-353.26 866.15,-359.26 870.35,-359.26"/>
</g>
<!-- c6 -->
<g id="node16" class="node">
<title>c6</title>
<path fill="#faece7" stroke="#993c1d" stroke-width="0.6" d="M1148.5,-353C1148.5,-353 1053.5,-353 1053.5,-353 1047.5,-353 1041.5,-347 1041.5,-341 1041.5,-341 1041.5,-329 1041.5,-329 1041.5,-323 1047.5,-317 1053.5,-317 1053.5,-317 1148.5,-317 1148.5,-317 1154.5,-317 1160.5,-323 1160.5,-329 1160.5,-329 1160.5,-341 1160.5,-341 1160.5,-347 1154.5,-353 1148.5,-353"/>
<text text-anchor="middle" x="1101" y="-338" font-family="Helvetica,sans-Serif" font-size="10.00" fill="#4a1b0c">6. Distractors</text>
<text text-anchor="middle" x="1101" y="-327" font-family="Helvetica,sans-Serif" font-size="10.00" fill="#4a1b0c">Identify · Eliminate</text>
</g>
<!-- root&#45;&gt;c6 -->
<g id="edge10" class="edge">
<title>root&#45;&gt;c6</title>
<path fill="none" stroke="#888780" stroke-width="0.7" d="M898.28,-409C979.46,-409 1101,-409 1101,-409 1101,-409 1101,-359.29 1101,-359.29"/>
<polygon fill="#888780" stroke="#888780" stroke-width="0.7" points="1103.1,-359.29 1101,-353.29 1098.9,-359.29 1103.1,-359.29"/>
</g>
<!-- c7 -->
<g id="node17" class="node">
<title>c7</title>
<path fill="#eeedfe" stroke="#534ab7" stroke-width="0.6" d="M1395.5,-353C1395.5,-353 1212.5,-353 1212.5,-353 1206.5,-353 1200.5,-347 1200.5,-341 1200.5,-341 1200.5,-329 1200.5,-329 1200.5,-323 1206.5,-317 1212.5,-317 1212.5,-317 1395.5,-317 1395.5,-317 1401.5,-317 1407.5,-323 1407.5,-329 1407.5,-329 1407.5,-341 1407.5,-341 1407.5,-347 1401.5,-353 1395.5,-353"/>
<text text-anchor="middle" x="1304" y="-338" font-family="Helvetica,sans-Serif" font-size="10.00" fill="#26215c">7. Memory Listening</text>
<text text-anchor="middle" x="1304" y="-327" font-family="Helvetica,sans-Serif" font-size="10.00" fill="#26215c">Keywords · Counterparts · Duplicates</text>
</g>
<!-- root&#45;&gt;c7 -->
<g id="edge11" class="edge">
<title>root&#45;&gt;c7</title>
<path fill="none" stroke="#888780" stroke-width="0.7" d="M898.15,-418C1031.13,-418 1304,-418 1304,-418 1304,-418 1304,-359.01 1304,-359.01"/>
<polygon fill="#888780" stroke="#888780" stroke-width="0.7" points="1306.1,-359.01 1304,-353.01 1301.9,-359.01 1306.1,-359.01"/>
</g>
<!-- c8 -->
<g id="node18" class="node">
<title>c8</title>
<path fill="#eeedfe" stroke="#534ab7" stroke-width="0.6" d="M1606,-353C1606,-353 1460,-353 1460,-353 1454,-353 1448,-347 1448,-341 1448,-341 1448,-329 1448,-329 1448,-323 1454,-317 1460,-317 1460,-317 1606,-317 1606,-317 1612,-317 1618,-323 1618,-329 1618,-329 1618,-341 1618,-341 1618,-347 1612,-353 1606,-353"/>
<text text-anchor="middle" x="1533" y="-338" font-family="Helvetica,sans-Serif" font-size="10.00" fill="#26215c">8. Summary Memory</text>
<text text-anchor="middle" x="1533" y="-327" font-family="Helvetica,sans-Serif" font-size="10.00" fill="#26215c">Post&#45;recording reconstruction</text>
</g>
<!-- root&#45;&gt;c8 -->
<g id="edge12" class="edge">
<title>root&#45;&gt;c8</title>
<path fill="none" stroke="#888780" stroke-width="0.7" d="M898.25,-427C1077.51,-427 1533,-427 1533,-427 1533,-427 1533,-359.18 1533,-359.18"/>
<polygon fill="#888780" stroke="#888780" stroke-width="0.7" points="1535.1,-359.18 1533,-353.18 1530.9,-359.18 1535.1,-359.18"/>
</g>
<!-- c1_spatial -->
<g id="node3" class="node">
<title>c1_spatial</title>
<path fill="#e6f1fb" stroke="#185fa5" stroke-width="0.6" d="M301.5,-240C301.5,-240 204.5,-240 204.5,-240 198.5,-240 192.5,-234 192.5,-228 192.5,-228 192.5,-216 192.5,-216 192.5,-210 198.5,-204 204.5,-204 204.5,-204 301.5,-204 301.5,-204 307.5,-204 313.5,-210 313.5,-216 313.5,-216 313.5,-228 313.5,-228 313.5,-234 307.5,-240 301.5,-240"/>
<text text-anchor="middle" x="253" y="-225" font-family="Helvetica,sans-Serif" font-size="10.00" fill="#0c447c">Spatial</text>
<text text-anchor="middle" x="253" y="-214" font-family="Helvetica,sans-Serif" font-size="10.00" fill="#0c447c">Object components</text>
</g>
<!-- c1&#45;&gt;c1_spatial -->
<g id="edge13" class="edge">
<title>c1&#45;&gt;c1_spatial</title>
<path fill="none" stroke="#888780" stroke-width="0.7" d="M204,-316.84C204,-316.84 204,-246.11 204,-246.11"/>
<polygon fill="#888780" stroke="#888780" stroke-width="0.7" points="206.1,-246.11 204,-240.11 201.9,-246.11 206.1,-246.11"/>
</g>
<!-- c1_temporal -->
<g id="node4" class="node">
<title>c1_temporal</title>
<path fill="#faeeda" stroke="#854f0b" stroke-width="0.6" d="M140,-240C140,-240 50,-240 50,-240 44,-240 38,-234 38,-228 38,-228 38,-216 38,-216 38,-210 44,-204 50,-204 50,-204 140,-204 140,-204 146,-204 152,-210 152,-216 152,-216 152,-228 152,-228 152,-234 146,-240 140,-240"/>
<text text-anchor="middle" x="95" y="-225" font-family="Helvetica,sans-Serif" font-size="10.00" fill="#412402">Temporal</text>
<text text-anchor="middle" x="95" y="-214" font-family="Helvetica,sans-Serif" font-size="10.00" fill="#412402">Time components</text>
</g>
<!-- c1&#45;&gt;c1_temporal -->
<g id="edge14" class="edge">
<title>c1&#45;&gt;c1_temporal</title>
<path fill="none" stroke="#888780" stroke-width="0.7" d="M95,-316.84C95,-316.84 95,-246.11 95,-246.11"/>
<polygon fill="#888780" stroke="#888780" stroke-width="0.7" points="97.1,-246.11 95,-240.11 92.9,-246.11 97.1,-246.11"/>
</g>
<!-- c1_relations -->
<g id="node5" class="node">
<title>c1_relations</title>
<path fill="#faece7" stroke="#993c1d" stroke-width="0.6" d="M237,-157C237,-157 115,-157 115,-157 109,-157 103,-151 103,-145 103,-145 103,-133 103,-133 103,-127 109,-121 115,-121 115,-121 237,-121 237,-121 243,-121 249,-127 249,-133 249,-133 249,-145 249,-145 249,-151 243,-157 237,-157"/>
<text text-anchor="middle" x="176" y="-142" font-family="Helvetica,sans-Serif" font-size="10.00" fill="#4a1b0c">Relations</text>
<text text-anchor="middle" x="176" y="-131" font-family="Helvetica,sans-Serif" font-size="10.00" fill="#4a1b0c">Spatial · Temporal · Both</text>
</g>
<!-- c1_spatial&#45;&gt;c1_relations -->
<g id="edge1" class="edge">
<title>c1_spatial&#45;&gt;c1_relations</title>
<path fill="none" stroke="#888780" stroke-width="0.7" d="M220.75,-203.99C220.75,-203.99 220.75,-163.26 220.75,-163.26"/>
<polygon fill="#888780" stroke="#888780" stroke-width="0.7" points="222.85,-163.26 220.75,-157.26 218.65,-163.26 222.85,-163.26"/>
</g>
<!-- c1_temporal&#45;&gt;c1_relations -->
<g id="edge2" class="edge">
<title>c1_temporal&#45;&gt;c1_relations</title>
<path fill="none" stroke="#888780" stroke-width="0.7" d="M127.5,-203.99C127.5,-203.99 127.5,-163.26 127.5,-163.26"/>
<polygon fill="#888780" stroke="#888780" stroke-width="0.7" points="129.6,-163.26 127.5,-157.26 125.4,-163.26 129.6,-163.26"/>
</g>
<!-- c3_pos -->
<g id="node8" class="node">
<title>c3_pos</title>
<path fill="#e1f5ee" stroke="#0f6e56" stroke-width="0.6" d="M717,-240C717,-240 655,-240 655,-240 649,-240 643,-234 643,-228 643,-228 643,-216 643,-216 643,-210 649,-204 655,-204 655,-204 717,-204 717,-204 723,-204 729,-210 729,-216 729,-216 729,-228 729,-228 729,-234 723,-240 717,-240"/>
<text text-anchor="middle" x="686" y="-225" font-family="Helvetica,sans-Serif" font-size="10.00" fill="#04342c">Positive</text>
<text text-anchor="middle" x="686" y="-214" font-family="Helvetica,sans-Serif" font-size="10.00" fill="#04342c">agrees / yes</text>
</g>
<!-- c3&#45;&gt;c3_pos -->
<g id="edge15" class="edge">
<title>c3&#45;&gt;c3_pos</title>
<path fill="none" stroke="#888780" stroke-width="0.7" d="M632.01,-335C646.96,-335 657.5,-335 657.5,-335 657.5,-335 657.5,-246.16 657.5,-246.16"/>
<polygon fill="#888780" stroke="#888780" stroke-width="0.7" points="659.6,-246.16 657.5,-240.16 655.4,-246.16 659.6,-246.16"/>
</g>
<!-- c3_neg -->
<g id="node9" class="node">
<title>c3_neg</title>
<path fill="#faece7" stroke="#993c1d" stroke-width="0.6" d="M590.5,-240C590.5,-240 533.5,-240 533.5,-240 527.5,-240 521.5,-234 521.5,-228 521.5,-228 521.5,-216 521.5,-216 521.5,-210 527.5,-204 533.5,-204 533.5,-204 590.5,-204 590.5,-204 596.5,-204 602.5,-210 602.5,-216 602.5,-216 602.5,-228 602.5,-228 602.5,-234 596.5,-240 590.5,-240"/>
<text text-anchor="middle" x="562" y="-225" font-family="Helvetica,sans-Serif" font-size="10.00" fill="#4a1b0c">Negative</text>
<text text-anchor="middle" x="562" y="-214" font-family="Helvetica,sans-Serif" font-size="10.00" fill="#4a1b0c">doubts / no</text>
</g>
<!-- c3&#45;&gt;c3_neg -->
<g id="edge16" class="edge">
<title>c3&#45;&gt;c3_neg</title>
<path fill="none" stroke="#888780" stroke-width="0.7" d="M562,-316.84C562,-316.84 562,-246.11 562,-246.11"/>
<polygon fill="#888780" stroke="#888780" stroke-width="0.7" points="564.1,-246.11 562,-240.11 559.9,-246.11 564.1,-246.11"/>
</g>
<!-- c3_par -->
<g id="node10" class="node">
<title>c3_par</title>
<path fill="#faeeda" stroke="#854f0b" stroke-width="0.6" d="M469.5,-240C469.5,-240 366.5,-240 366.5,-240 360.5,-240 354.5,-234 354.5,-228 354.5,-228 354.5,-216 354.5,-216 354.5,-210 360.5,-204 366.5,-204 366.5,-204 469.5,-204 469.5,-204 475.5,-204 481.5,-210 481.5,-216 481.5,-216 481.5,-228 481.5,-228 481.5,-234 475.5,-240 469.5,-240"/>
<text text-anchor="middle" x="418" y="-225" font-family="Helvetica,sans-Serif" font-size="10.00" fill="#412402">Paradoxical</text>
<text text-anchor="middle" x="418" y="-214" font-family="Helvetica,sans-Serif" font-size="10.00" fill="#412402">negative form → yes</text>
</g>
<!-- c3&#45;&gt;c3_par -->
<g id="edge17" class="edge">
<title>c3&#45;&gt;c3_par</title>
<path fill="none" stroke="#888780" stroke-width="0.7" d="M457.75,-316.84C457.75,-316.84 457.75,-246.11 457.75,-246.11"/>
<polygon fill="#888780" stroke="#888780" stroke-width="0.7" points="459.85,-246.11 457.75,-240.11 455.65,-246.11 459.85,-246.11"/>
</g>
<!-- c5_intro -->
<g id="node13" class="node">
<title>c5_intro</title>
<path fill="#e6f1fb" stroke="#185fa5" stroke-width="0.6" d="M865,-240C865,-240 787,-240 787,-240 781,-240 775,-234 775,-228 775,-228 775,-216 775,-216 775,-210 781,-204 787,-204 787,-204 865,-204 865,-204 871,-204 877,-210 877,-216 877,-216 877,-228 877,-228 877,-234 871,-240 865,-240"/>
<text text-anchor="middle" x="826" y="-225" font-family="Helvetica,sans-Serif" font-size="10.00" fill="#0c447c">Intro statement</text>
<text text-anchor="middle" x="826" y="-214" font-family="Helvetica,sans-Serif" font-size="10.00" fill="#0c447c">Brief overview</text>
</g>
<!-- c5&#45;&gt;c5_intro -->
<g id="edge18" class="edge">
<title>c5&#45;&gt;c5_intro</title>
<path fill="none" stroke="#888780" stroke-width="0.7" d="M857.75,-316.84C857.75,-316.84 857.75,-246.11 857.75,-246.11"/>
<polygon fill="#888780" stroke="#888780" stroke-width="0.7" points="859.85,-246.11 857.75,-240.11 855.65,-246.11 859.85,-246.11"/>
</g>
<!-- c5_comp -->
<g id="node14" class="node">
<title>c5_comp</title>
<path fill="#e6f1fb" stroke="#185fa5" stroke-width="0.6" d="M866.5,-157C866.5,-157 781.5,-157 781.5,-157 775.5,-157 769.5,-151 769.5,-145 769.5,-145 769.5,-133 769.5,-133 769.5,-127 775.5,-121 781.5,-121 781.5,-121 866.5,-121 866.5,-121 872.5,-121 878.5,-127 878.5,-133 878.5,-133 878.5,-145 878.5,-145 878.5,-151 872.5,-157 866.5,-157"/>
<text text-anchor="middle" x="824" y="-142" font-family="Helvetica,sans-Serif" font-size="10.00" fill="#0c447c">Components</text>
<text text-anchor="middle" x="824" y="-131" font-family="Helvetica,sans-Serif" font-size="10.00" fill="#0c447c">Parts / properties</text>
</g>
<!-- c5_intro&#45;&gt;c5_comp -->
<g id="edge3" class="edge">
<title>c5_intro&#45;&gt;c5_comp</title>
<path fill="none" stroke="#888780" stroke-width="0.7" d="M826,-203.99C826,-203.99 826,-163.26 826,-163.26"/>
<polygon fill="#888780" stroke="#888780" stroke-width="0.7" points="828.1,-163.26 826,-157.26 823.9,-163.26 828.1,-163.26"/>
</g>
<!-- c5_rels -->
<g id="node15" class="node">
<title>c5_rels</title>
<path fill="#e6f1fb" stroke="#185fa5" stroke-width="0.6" d="M864.5,-74C864.5,-74 783.5,-74 783.5,-74 777.5,-74 771.5,-68 771.5,-62 771.5,-62 771.5,-50 771.5,-50 771.5,-44 777.5,-38 783.5,-38 783.5,-38 864.5,-38 864.5,-38 870.5,-38 876.5,-44 876.5,-50 876.5,-50 876.5,-62 876.5,-62 876.5,-68 870.5,-74 864.5,-74"/>
<text text-anchor="middle" x="824" y="-59" font-family="Helvetica,sans-Serif" font-size="10.00" fill="#0c447c">Relations</text>
<text text-anchor="middle" x="824" y="-48" font-family="Helvetica,sans-Serif" font-size="10.00" fill="#0c447c">Object&#45;to&#45;object</text>
</g>
<!-- c5_comp&#45;&gt;c5_rels -->
<g id="edge4" class="edge">
<title>c5_comp&#45;&gt;c5_rels</title>
<path fill="none" stroke="#888780" stroke-width="0.7" d="M824,-120.99C824,-120.99 824,-80.26 824,-80.26"/>
<polygon fill="#888780" stroke="#888780" stroke-width="0.7" points="826.1,-80.26 824,-74.26 821.9,-80.26 826.1,-80.26"/>
</g>
<!-- c8_end -->
<g id="node19" class="node">
<title>c8_end</title>
<path fill="#e1f5ee" stroke="#0f6e56" stroke-width="0.6" d="M1506,-240C1506,-240 1360,-240 1360,-240 1354,-240 1348,-234 1348,-228 1348,-228 1348,-216 1348,-216 1348,-210 1354,-204 1360,-204 1360,-204 1506,-204 1506,-204 1512,-204 1518,-210 1518,-216 1518,-216 1518,-228 1518,-228 1518,-234 1512,-240 1506,-240"/>
<text text-anchor="middle" x="1433" y="-225" font-family="Helvetica,sans-Serif" font-size="10.00" fill="#04342c">End&#45;of&#45;recording</text>
<text text-anchor="middle" x="1433" y="-214" font-family="Helvetica,sans-Serif" font-size="10.00" fill="#04342c">Prof. notes / scientific models</text>
</g>
<!-- c8&#45;&gt;c8_end -->
<g id="edge19" class="edge">
<title>c8&#45;&gt;c8_end</title>
<path fill="none" stroke="#888780" stroke-width="0.7" d="M1483,-316.84C1483,-316.84 1483,-246.11 1483,-246.11"/>
<polygon fill="#888780" stroke="#888780" stroke-width="0.7" points="1485.1,-246.11 1483,-240.11 1480.9,-246.11 1485.1,-246.11"/>
</g>
<!-- c8_rt -->
<g id="node20" class="node">
<title>c8_rt</title>
<path fill="#faeeda" stroke="#854f0b" stroke-width="0.6" d="M1694,-240C1694,-240 1570,-240 1570,-240 1564,-240 1558,-234 1558,-228 1558,-228 1558,-216 1558,-216 1558,-210 1564,-204 1570,-204 1570,-204 1694,-204 1694,-204 1700,-204 1706,-210 1706,-216 1706,-216 1706,-228 1706,-228 1706,-234 1700,-240 1694,-240"/>
<text text-anchor="middle" x="1632" y="-225" font-family="Helvetica,sans-Serif" font-size="10.00" fill="#412402">Realtime</text>
<text text-anchor="middle" x="1632" y="-214" font-family="Helvetica,sans-Serif" font-size="10.00" fill="#412402">Scientific model diagram</text>
</g>
<!-- c8&#45;&gt;c8_rt -->
<g id="edge20" class="edge">
<title>c8&#45;&gt;c8_rt</title>
<path fill="none" stroke="#888780" stroke-width="0.7" d="M1588,-316.84C1588,-316.84 1588,-246.11 1588,-246.11"/>
<polygon fill="#888780" stroke="#888780" stroke-width="0.7" points="1590.1,-246.11 1588,-240.11 1585.9,-246.11 1590.1,-246.11"/>
</g>
<!-- output -->
<g id="node21" class="node">
<title>output</title>
<path fill="#faece7" stroke="#993c1d" d="M1612.5,-157C1612.5,-157 1451.5,-157 1451.5,-157 1445.5,-157 1439.5,-151 1439.5,-145 1439.5,-145 1439.5,-133 1439.5,-133 1439.5,-127 1445.5,-121 1451.5,-121 1451.5,-121 1612.5,-121 1612.5,-121 1618.5,-121 1624.5,-127 1624.5,-133 1624.5,-133 1624.5,-145 1624.5,-145 1624.5,-151 1618.5,-157 1612.5,-157"/>
<text text-anchor="middle" x="1532" y="-142" font-family="Helvetica,sans-Serif" font-size="10.00" fill="#4a1b0c">Structural Diagram</text>
<text text-anchor="middle" x="1532" y="-131" font-family="Helvetica,sans-Serif" font-size="10.00" fill="#4a1b0c">Objects + interrelations (output)</text>
</g>
<!-- c8_end&#45;&gt;output -->
<g id="edge21" class="edge">
<title>c8_end&#45;&gt;output</title>
<path fill="none" stroke="#888780" stroke-width="0.7" d="M1478.75,-203.99C1478.75,-203.99 1478.75,-163.26 1478.75,-163.26"/>
<polygon fill="#888780" stroke="#888780" stroke-width="0.7" points="1480.85,-163.26 1478.75,-157.26 1476.65,-163.26 1480.85,-163.26"/>
</g>
<!-- c8_rt&#45;&gt;output -->
<g id="edge22" class="edge">
<title>c8_rt&#45;&gt;output</title>
<path fill="none" stroke="#888780" stroke-width="0.7" d="M1591.25,-203.99C1591.25,-203.99 1591.25,-163.26 1591.25,-163.26"/>
<polygon fill="#888780" stroke="#888780" stroke-width="0.7" points="1593.35,-163.26 1591.25,-157.26 1589.15,-163.26 1593.35,-163.26"/>
</g>
</g>
</svg>
